<svg width="22" height="23" viewBox="0 0 22 23" fill="none" xmlns="http://www.w3.org/2000/svg">
<path fill-rule="evenodd" clip-rule="evenodd" d="M12.8865 13.9708C15.0066 11.6723 15.0066 7.94587 12.8865 5.64746C10.7665 3.34904 7.32923 3.34904 5.20918 5.64746C3.08913 7.94587 3.08913 11.6723 5.20918 13.9708C7.32923 16.2692 10.7665 16.2692 12.8865 13.9708ZM14.0381 17.9937C10.5251 20.517 5.74526 20.1008 2.65006 16.7452C-0.883353 12.9145 -0.883353 6.70372 2.65006 2.87302C6.18347 -0.957674 11.9123 -0.957674 15.4457 2.87302C18.5409 6.22864 18.9247 11.4106 16.5972 15.2192L20.5639 19.5196C21.2706 20.2858 21.2706 21.5279 20.5639 22.2941C19.8572 23.0602 18.7115 23.0602 18.0048 22.2941L14.0381 17.9937Z" fill="#727272"/>
</svg>
