<svg width="26" height="26" viewBox="0 0 26 26" fill="none" xmlns="http://www.w3.org/2000/svg">
<path opacity="0.4" d="M13 26C20.1796 26 26 20.1798 26 13C26 5.82029 20.1796 0 13 0C5.82029 0 0 5.82029 0 13C0 20.1798 5.82029 26 13 26Z" fill="#292D32"/>
<path d="M13 6.409C10.309 6.409 8.125 8.593 8.125 11.2839C8.125 13.9229 10.192 16.0679 12.935 16.1459H13.052H13.143H13.169C15.795 16.0549 17.862 13.9229 17.875 11.2839C17.875 8.593 15.691 6.409 13 6.409Z" fill="#292D32"/>
<path d="M21.815 22.5549C19.501 24.6869 16.407 25.9999 13.001 25.9999C9.59495 25.9999 6.50095 24.6869 4.18695 22.5549C4.49895 21.3719 5.34395 20.2929 6.57895 19.4609C10.128 17.0949 15.9 17.0949 19.423 19.4609C20.671 20.2929 21.503 21.3719 21.815 22.5549Z" fill="#292D32"/>
</svg>
